<svg xmlns="http://www.w3.org/2000/svg" viewBox="0 0 500 500"><linearGradient id="a" gradientUnits="userSpaceOnUse" x1="62.402" y1="394.674" x2="451.558" y2="394.674"><stop offset="0" stop-color="#2AFF8F"/><stop offset="1" stop-color="#52A34A"/></linearGradient><path fill="url(#a)" d="M433.1 369.8c-22.3 38.7-134.4-1-161.6.7-27.3 1.6-151.7 62.8-209 29.7 26.7 52.2 172.3 7.8 213.9 7.8 41.6 0 141 41.3 169-7.3.2-.3.4-.6.5-1-.2-11.8-4-23.9-10.2-35.9-.7 2-1.5 3.9-2.6 6z"/><linearGradient id="b" gradientUnits="userSpaceOnUse" x1="18.047" y1="372.608" x2="407.297" y2="372.608" gradientTransform="matrix(-.5 .866 -.866 -.5 590.631 242.722)"><stop offset="0" stop-color="#2AFF8F"/><stop offset="1" stop-color="#52A34A"/></linearGradient><path fill="url(#b)" d="M95.3 405.7c-22.3-38.7 68-115.9 80.2-140.3 12.2-24.4 20.9-163.2 78.2-196.3-58.6-3-92.4 145.7-113.2 181.7-20.8 36-106.2 101.5-78.2 150l.6.9c10.3 5.7 22.7 8.5 36.2 9.1-1.3-1.4-2.6-3.1-3.8-5.1z"/><linearGradient id="c" gradientUnits="userSpaceOnUse" x1="-207.212" y1="403.489" x2="181.747" y2="403.489" gradientTransform="matrix(-.5 -.866 .866 -.5 -12.524 425.785)"><stop offset="0" stop-color="#2AFF8F"/><stop offset="1" stop-color="#52A34A"/></linearGradient><path fill="url(#c)" d="M233.6 95.2c44.7 0 66.4 116.8 81.4 139.6 15 22.8 130.3 99.7 130.3 165.9 31.9-49.2-79.4-152.9-100.2-188.9-20.8-36-34.8-142.8-90.8-142.8h-1.1c-10.1 6.1-18.7 15.4-26 26.8 2-.4 4.1-.6 6.4-.6z"/></svg>